<?xml version="1.0" encoding="utf-8"?>
<!-- Generator: Adobe Illustrator 19.0.0, SVG Export Plug-In . SVG Version: 6.00 Build 0)  -->
<svg version="1.1" id="Capa_1" xmlns="http://www.w3.org/2000/svg" xmlns:xlink="http://www.w3.org/1999/xlink" x="0px" y="0px"
	 viewBox="-173 374.7 247.7 93.2" style="enable-background:new -173 374.7 247.7 93.2;" xml:space="preserve">
<style type="text/css">
	.st0{fill:#652D90;}
	.st1{fill:#4EB861;}
	.st2{fill:#FFFFFF;}
	.st3{fill:#662D91;}
</style>
<g>
	<g id="XMLID_1_">
		<path id="XMLID_313_" class="st0" d="M-79.9,421.5c0.1-25.7-20.6-46.6-46.3-46.8c-25.7-0.1-46.6,20.6-46.8,46.3
			c-0.1,25.7,20.6,46.6,46.3,46.8c3.7,0,7.4-0.4,10.9-1.2l17.2,1.3l-10.1-3.5C-91.9,457.3-80,440.8-79.9,421.5z"/>
		<g id="XMLID_284_">
			<g id="XMLID_294_">
				<g>
					<path id="XMLID_50_" class="st1" d="M-144.8,425.6c0-5.5,4.3-10.4,11.9-10.3c3.4,0,5.4,0.7,6.9,1.8l-2.5,4.3
						c-1-0.6-2.5-1.3-4.6-1.3c-3.6,0-5.5,2-5.5,5.5s1.4,6,5,6c1.2,0,2-0.2,2.5-0.4v-2.7h-3.3v-4.3h8.9l-0.1,10.2
						c-1.4,0.7-3.5,1.8-8,1.8C-141.1,436-144.9,431-144.8,425.6z"/>
					<path id="XMLID_48_" class="st1" d="M-124.1,415.6l12.9,0.1v4.7h-7.1v3h6.2v4.3h-6.2v3.4h7.3v4.7l-13.1-0.1L-124.1,415.6
						L-124.1,415.6z"/>
					<path id="XMLID_46_" class="st1" d="M-105.8,420.4h-5.5v-4.7l16.9,0.1v4.7h-5.5l-0.1,15.4h-5.9L-105.8,420.4z"/>
				</g>
			</g>
			<g id="XMLID_285_">
				<path id="XMLID_292_" class="st1" d="M-152.8,400.5h-5.5v-4.7l16.9,0.1v4.7h-5.5L-147,416h-5.9L-152.8,400.5z"/>
				<path id="XMLID_289_" class="st1" d="M-137.3,395.9h5.6l8,20.1h-6.4l-1-2.8h-7.3l-1,2.8h-5.9L-137.3,395.9z M-132.6,408.7
					l-1.1-3.2c-0.6-1.7-0.9-3.4-0.9-3.5h-0.1c0,0.1-0.4,1.8-1,3.5l-1.1,3.2H-132.6z"/>
				<path id="XMLID_286_" class="st1" d="M-124.1,396h7.8c5.2,0,8.2,2.1,8.2,6.2c0,3.3-2.1,4.8-4,5.5v0.1c0.7,0.5,1.5,1.4,2.6,3.2
					l3.1,5.2h-6.3l-3.4-5.7c-0.9-1.6-1.3-1.8-1.9-1.8h-0.2v7.5h-5.9L-124.1,396L-124.1,396z M-116.4,404.8c1.7,0,2.6-0.8,2.6-2.2
					c0-1.5-0.8-2.3-2.7-2.3h-1.7v4.5H-116.4z"/>
			</g>
		</g>
		<g id="XMLID_2_">
			<path id="XMLID_72_" class="st2" d="M-109.4,450.9c-34.3,16.6-47.3-10.8-51.6-26.9c-0.4-1.3,0.5-1.4,0.9-0.3
				c9.5,32.7,42.2,26.4,50.2,26.3C-108.4,450.1-109,450.7-109.4,450.9z"/>
			<path id="XMLID_65_" class="st2" d="M-112.5,447c1.6-0.1,3.1,0.2,4.6,0.7c0.7,0.2,2.4,0.8,2.6,1.5c0.3,1.1-1.1,2.5-1.8,3.1
				c-1.1,1.1-2.5,2-4.1,2.4c-1.5,0.4-0.9,2.7,0.6,2.3c2.1-0.6,4-1.8,5.5-3.4c1.2-1.2,2.4-3,2.1-4.8c-0.3-1.6-1.7-2.3-3.1-2.9
				c-2-0.9-4.3-1.5-6.5-1.3C-114,444.8-114.1,447.1-112.5,447L-112.5,447z"/>
			<path id="XMLID_64_" class="st2" d="M-102,445.8c1,0.1,2,0.4,2.3,1.4c0.2,0.8,0,1.6-0.2,2.4c-0.4,1.5,1.9,2.1,2.3,0.6
				c0.4-1.3,0.5-2.7,0.1-4c-0.6-1.6-2.1-2.5-3.8-2.7C-102.9,443.3-103.5,445.5-102,445.8L-102,445.8z"/>
		</g>
	</g>
	<g id="XMLID_83_">
		<path id="XMLID_281_" class="st3" d="M50,430.7c0.3,0.8,0.5,1.3,0.6,1.9c0.3,2.4-0.5,4.5-2.3,6c-4.8,4.1-10.4,5.6-16.7,4.1
			c-1.5-0.4-2.8-1.5-4.4-2.3c-0.9,0.5-2.1,1.4-3.3,2c-1.9,1-3.9,1.8-6.1,1.1c-1.9-0.6-2.9-1.9-3.1-3.9c-0.2-2.9,0.7-5.5,2-8.1
			c0.7-1.4,1.6-2.8,2.2-4.4c-0.8,0.5-1.5,0.9-2.3,1.5C11,432.7,6,437.2,2,442.8c-0.3,0.4-1.2,1-1.6,0.8c-0.9-0.3-2.2-0.9-2.4-1.6
			c-0.3-1.3-0.3-2.9,0.3-4c1.4-3.2,3.2-6.2,4.8-9.2c0.1-0.2,0.3-0.5,0.2-0.9c-0.4,0.2-0.8,0.4-1.1,0.7c-6,4.7-11.5,9.8-15.9,16
			c-0.7,1-1.6,0.9-2.6,0.7c-1-0.3-2-0.8-1.8-2c0.3-1.8,0.7-3.7,1.4-5.4c1.5-3.3,3.2-6.6,4.8-9.8c0.2-0.5,0.5-1,0.9-1.7
			c-0.6,0.2-1,0.3-1.3,0.4c-2.1,0.6-4.1,1.3-6.2,1.9c-1.2,0.3-1.8,0.7-2,2.1c-0.7,5.5-3.4,9.9-8.9,12.3c-4.4,1.9-10,0.9-12.3-4.4
			c-2.1,1.3-4.2,2.6-6.4,3.7c-1.2,0.6-2.6,0.8-4,0.9c-1.7,0.1-2.7-0.8-3.2-2.3c-0.7-2.1-0.3-4.2,0.4-6.1c0.7-1.9,1.7-3.6,2.5-5.5
			c0.2-0.4,0.4-0.7,0.6-1.1c-0.1-0.1-0.2-0.2-0.3-0.2c-1.3,1-2.6,2-3.8,3c-4.9,4.1-9.4,8.5-13.1,13.7c-0.8,1.2-1.9,0.9-2.9,0.6
			c-1.1-0.3-1.7-0.9-1.6-2c0.1-0.9,0.3-1.8,0.7-2.6c4.4-9.7,8.7-19.4,14.4-28.5c1.3-2.1,2.7-4.2,4.2-6.3c1.1-1.6,1.6-1.6,3.4-0.8
			c0.3,0.2,0.7,0.4,1,0.5c1.7,1,1.6,1,0.4,2.6c-2.1,2.9-4.1,5.9-5.9,9c-3.8,6.5-7.4,13.1-11.1,19.6c-0.1,0.2-0.2,0.5,0,0.9
			c1.2-1.3,2.3-2.6,3.6-3.8c4.4-4,8.9-7.9,13.4-11.9c0.5-0.4,1.1-0.8,1.6-1.1c1.7-1,4.2-0.6,5.2,1.1c0.2,0.4,0.1,1.1-0.2,1.6
			c-2,3.3-4.1,6.5-6,9.7c-1,1.7-1.7,3.6-2.5,5.5c-0.2,0.5-0.2,1.5,0.1,1.6c0.5,0.2,1.4,0.2,1.9,0c2-0.9,3.8-2,5.7-3.1
			c1.1-0.6,1.6-1.5,1.6-2.9c0.1-4.3,4.5-9.4,9-10.4c0.4-0.1,0.9,0,1.3,0c0.1,0.1,0.1,0.2,0.2,0.3c-0.5,0.6-0.9,1.2-1.5,1.7
			c-3,3.2-4.7,6.9-4.2,11.3c0,0.4,0.1,0.8,0.2,1.2c0.8,2.8,3.3,3.8,6,2.3c1.9-1,3-2.7,3.7-4.5c0.8-1.9,1.2-4,1.7-6
			c0.2-0.8-0.1-1.3-1-1.8c-1.5-0.9-2.8-2-3.9-3.3c-1.2-1.5-0.7-3.4,0.5-4.6c1.2-1.1,3.4-1.3,5.1-0.5c2.2,1.1,3.2,3,3.9,5.2
			c0.5,1.7,0.5,1.7,2.3,1.3c3.4-0.7,6.5-2.1,9.3-4c1.3-0.9,4.7,0,5.3,1.4c0.1,0.3-0.2,0.9-0.4,1.3c-2.3,3.8-4.7,7.7-7,11.5
			c-0.1,0.2-0.2,0.5,0,0.9c1.3-1.3,2.4-2.8,3.8-4c4.4-3.9,8.8-7.7,13.3-11.6c0.3-0.3,0.7-0.5,1-0.7c2.4-1.5,3.5-1.4,5.5,0.5
			c0.7,0.7,0.3,1.2-0.1,1.8c-2,3-4,6-6,9c-0.4,0.6-0.8,1.3-1.3,2.2c1.1-1,2.1-1.7,3-2.5c4.3-4.2,8.8-8.1,14-11.2
			c2-1.2,4.2-0.9,5.6,1c0.3,0.3,0.2,1.1-0.1,1.6c-1.2,1.9-2.6,3.7-3.6,5.7c-1.6,3.1-3.1,6.2-4.5,9.4c-0.3,0.6-0.2,1.6,0.2,2
			c0.3,0.3,1.4,0.3,2,0.1c1-0.3,2-0.8,3-1.3c1.2-0.6,1.9-1.4,2.2-2.9c0.3-1.2,1.4-2.5,2.5-3.3c1.6-1.2,3.5-1.9,5.4-2.9v-0.1
			c-2.6-2.4-2.7-4.8-0.1-7.3c3.4-3.3,7.6-4.9,12.5-4.9c2.1,0,4,0.9,5.3,2.6c1,1.2,1.2,2.6,0.2,3.9c-0.6,0.8-1.2,1.5-1.9,2.2
			c-1.6,1.4-2.6,1.3-3.9-0.3c-0.3-0.4-0.5-0.8-0.9-1.2c0.5-0.3,0.9-0.5,1.4-0.8c0.6-0.3,1.2-0.6,1.6-1.1s0.8-1.3,0.7-1.8
			c-0.2-0.5-1-1-1.6-1c-3.7-0.2-8.8,1.6-10.1,5.9c-0.6,1.7,0.5,3,2.4,2.8c1.5-0.2,2.4,0.4,2.8,2c-1.2,0.4-2.4,0.6-3.6,1.1
			c-2.1,0.9-4.3,1.8-6.2,3c-0.9,0.5-1.5,1.8-1.7,2.8c-0.3,2.3,1.4,3.6,3.8,2.9c5.6-1.5,9.9-4.6,13.4-8.9
			C49.2,431.8,49.5,431.4,50,430.7z M-25.4,426.1c0.3-1.5-0.2-2.7-1-3.7c-0.3-0.3-1.1-0.6-1.3-0.4c-0.4,0.3-0.7,1-0.6,1.4
			C-28,424.7-26.9,425.6-25.4,426.1z"/>
		<path id="XMLID_280_" class="st3" d="M53.6,434.3c1.3-2.7,2.7-5.3,3.9-7.9c3.9-8.2,6.8-16.8,9.4-25.4c0.7-2.3,1.2-4.6,1.8-6.9
			c0.1-0.3,0.7-0.8,1-0.8c0.8,0,1.7,0.2,2.5,0.5c2.3,0.8,3,1.9,2.1,4.1c-2.1,5.3-4.2,10.6-6.6,15.8c-2.9,6.3-6.2,12.4-9.3,18.6
			c-0.2,0.3-0.3,0.7-0.5,1C56.8,435.2,55.9,435.4,53.6,434.3z"/>
		<path id="XMLID_157_" class="st3" d="M46.4,445.6c0.1-1.7,0.6-3.3,1.9-4.5c1.3-1.1,3.2-1.1,4.5,0.1c1.4,1.2,1.7,2.7,0.4,3.9
			c-1.2,1.2-2.7,2.2-4.2,2.9C47.3,448.9,46.3,447.8,46.4,445.6z"/>
	</g>
</g>
</svg>
